<svg width="79" height="32" viewBox="0 0 79 32" fill="none" xmlns="http://www.w3.org/2000/svg">
<path fill-rule="evenodd" clip-rule="evenodd" d="M6.00824 27.7333H7.81131V18.3466H6.00824V27.7333ZM12.6178 27.5925H14.2327V21.6701L21.0303 27.7333V18.4874H19.4199V24.3086L12.6178 18.3466V27.5925ZM24.717 25.3191C25.596 25.9865 26.651 26.3722 27.7821 26.3722C28.8838 26.3722 29.6567 26.0026 29.6567 25.1864C29.6567 24.4751 29.1637 24.1964 28.3006 23.8847L26.9031 23.4117C25.6148 22.9659 24.635 22.3147 24.635 20.8179C24.635 19.2171 26.1182 18.3466 27.892 18.3466C28.9786 18.3466 29.969 18.6128 30.7426 19.0843V20.672C29.9381 20.0927 29.0576 19.6937 27.9266 19.6937C26.9528 19.6937 26.2251 20.0479 26.2251 20.7864C26.2251 21.4537 26.6819 21.7207 27.4863 21.9891L29.0433 22.5215C30.5522 23.0385 31.2445 23.84 31.2445 25.1585C31.2445 26.8173 29.747 27.7333 27.7821 27.7333C26.4907 27.7333 25.3928 27.3813 24.717 26.9369V25.3191ZM35.4512 27.7333H37.2535V18.3466H35.4512V27.7333ZM45.709 26.3128C47.7408 26.3128 48.8267 25.0427 48.8267 23.0377C48.8267 21.0181 47.7401 19.7524 45.709 19.7524H43.6997V26.3128H45.709ZM42.0592 18.3466H45.7692C48.6251 18.3466 50.4718 20.1799 50.4718 23.0377C50.4718 25.8977 48.6251 27.7333 45.7692 27.7333H42.0592V18.3466ZM59.4856 18.3466V19.7524H55.1232V22.0111H59.0356V23.4007H55.1224V26.3128H59.4856V27.7333H53.4766V18.3466H59.4856ZM65.8837 22.597H67.6725C68.7313 22.597 69.328 22.0309 69.328 21.1604C69.328 20.2899 68.7313 19.7231 67.6725 19.7231H65.8837V22.5977V22.597ZM65.8837 23.9243V27.7333H64.2921V18.3466H67.7026C69.6471 18.3466 70.9054 19.3227 70.9054 21.1604C70.9054 22.7319 70.207 23.6347 68.7192 23.8664L72.1034 27.7333H70.2928L67.0163 23.9251H65.8844L65.8837 23.9243ZM5.37837 9.09927C6.08349 8.84773 6.63284 8.09313 6.63284 7.05547C6.63284 5.32627 5.37837 4.43013 3.37136 4.43013H0V14.083H3.68441C5.69142 14.083 6.9459 13.1238 6.9459 11.3161C6.9459 10.2939 6.28743 9.39774 5.37837 9.09927ZM1.58333 8.4862V5.84547H3.35631C4.47006 5.84547 5.06531 6.23853 5.06531 7.15007C5.06531 8.0616 4.46931 8.4862 3.35631 8.4862H1.58333ZM1.58333 9.83847H3.65281C4.75151 9.83847 5.34676 10.3723 5.34676 11.2531C5.34676 12.1177 4.75075 12.6684 3.65356 12.6684H1.58409V9.83774L1.58333 9.83847ZM14.3019 14.2399C16.6069 14.2399 18.1594 12.8877 18.1594 10.2469V4.43013H16.5287V10.0577C16.5287 11.9131 15.7445 12.7784 14.3019 12.7784C12.8593 12.7784 12.0759 11.9131 12.0759 10.0577V4.43013H10.4452V10.2308C10.4452 12.8877 12.0127 14.2399 14.3019 14.2399ZM21.9989 13.3907C22.6731 13.863 23.7711 14.2399 25.0564 14.2399C27.0168 14.2399 28.506 13.2646 28.506 11.5046C28.506 10.1054 27.8167 9.2562 26.3109 8.7062L24.7592 8.14007C23.9592 7.85773 23.5047 7.57467 23.5047 6.867C23.5047 6.08087 24.2256 5.70393 25.1979 5.70393C26.3267 5.70393 27.2049 6.1278 28.0048 6.7416V5.0586C27.2365 4.55627 26.2484 4.2732 25.1663 4.2732C23.3948 4.2732 21.9206 5.20087 21.9206 6.89854C21.9206 8.4862 22.8929 9.17774 24.1782 9.64927L25.5742 10.1523C26.4366 10.4823 26.9227 10.7815 26.9227 11.5361C26.9227 12.4007 26.1544 12.7938 25.0564 12.7938C23.9276 12.7938 22.8771 12.3846 21.9989 11.6777V13.3907ZM34.3329 4.43013H32.7029V14.0823H34.3329V4.43013ZM38.9851 14.0705H40.5564V7.791L47.1696 14.2201V4.41547H45.6029V10.5879L38.9851 4.2666V14.0705ZM57.3597 4.43233V5.87773H53.126V8.20093H56.9225V9.6302H53.126V12.6244H57.3597V14.0852H51.5276V4.43233H57.3597ZM61.1563 13.3841C61.8305 13.8564 62.9277 14.2333 64.2138 14.2333C66.1734 14.2333 67.6634 13.2587 67.6634 11.498C67.6634 10.0988 66.9734 9.25034 65.4683 8.6996L63.9158 8.1342C63.1159 7.85114 62.6613 7.56807 62.6613 6.8604C62.6613 6.07427 63.3823 5.69733 64.3545 5.69733C65.4833 5.69733 66.3615 6.12193 67.1615 6.735V5.05273C66.3932 4.54967 65.4051 4.2666 64.3229 4.2666C62.5515 4.2666 61.0773 5.19427 61.0773 6.89193C61.0773 8.4796 62.0495 9.17113 63.3349 9.64267L64.7308 10.1457C65.5932 10.4757 66.0793 10.7749 66.0793 11.5295C66.0793 12.3941 65.3118 12.7872 64.2131 12.7872C63.0843 12.7872 62.0337 12.3787 61.1563 11.6711V13.3841ZM71.0039 13.3841C71.6782 13.8564 72.7762 14.2333 74.0615 14.2333C76.0218 14.2333 77.5111 13.2587 77.5111 11.498C77.5111 10.0988 76.821 9.25034 75.316 8.6996L73.7635 8.1342C72.9643 7.85114 72.509 7.56807 72.509 6.8604C72.509 6.07427 73.2307 5.69733 74.2022 5.69733C75.331 5.69733 76.21 6.12193 77.0092 6.735V5.05273C76.2416 4.54967 75.2535 4.2666 74.1714 4.2666C72.3991 4.2666 70.9257 5.19427 70.9257 6.89193C70.9257 8.4796 71.8979 9.17113 73.1833 9.64267L74.5792 10.1457C75.4416 10.4757 75.9278 10.7749 75.9278 11.5295C75.9278 12.3941 75.1594 12.7872 74.0615 12.7872C72.9327 12.7872 71.8821 12.3787 71.0039 11.6711V13.3841Z" fill="#C2C2C2"/>
</svg>
